<svg width="116" height="408" viewBox="0 0 116 408" fill="none" xmlns="http://www.w3.org/2000/svg">
<path d="M68.3125 88.875C61.9792 88.875 56.1042 88.1875 50.6875 86.8125C45.3125 85.4792 40.5625 83.3542 36.4375 80.4375C32.3542 77.5625 29.0208 73.7917 26.4375 69.125L0.749996 91.4375L0.749997 60.6875L21.25 45.3125C21.25 45.2708 21.25 45.125 21.25 44.875C21.25 44.6667 21.25 44.5208 21.25 44.4375C21.25 36.7708 22.3542 30.125 24.5625 24.5C26.8125 18.9167 30 14.3125 34.125 10.6875C38.2917 7.06249 43.2708 4.37499 49.0625 2.625C54.8542 0.874995 61.3125 -4.29191e-06 68.4375 -3.98047e-06C77.9375 -3.56521e-06 86.1875 1.5625 93.1875 4.6875C100.229 7.85416 105.667 12.7292 109.5 19.3125C113.375 25.8958 115.312 34.3125 115.312 44.5625C115.312 54.9792 113.375 63.4375 109.5 69.9375C105.625 76.4792 100.167 81.2708 93.125 84.3125C86.0833 87.3542 77.8125 88.875 68.3125 88.875ZM68.3125 26C62.8125 26 58.0833 26.625 54.125 27.875C50.1667 29.125 47.125 31.1042 45 33.8125C42.875 36.5208 41.8125 40.0625 41.8125 44.4375C41.8125 48.9792 42.875 52.5833 45 55.25C47.125 57.9583 50.1667 59.8958 54.125 61.0625C58.0833 62.2708 62.8125 62.875 68.3125 62.875C76.5625 62.875 83.0833 61.5 87.875 58.75C92.6667 56 95.0625 51.2708 95.0625 44.5625C95.0625 40.1042 93.9792 36.5 91.8125 33.75C89.6458 31.0417 86.5625 29.0625 82.5625 27.8125C78.5625 26.6042 73.8125 26 68.3125 26ZM113.875 215.062L58.875 215.062C51.2083 215.062 44.5417 213.604 38.875 210.687C33.25 207.771 28.8958 203.396 25.8125 197.562C22.7708 191.729 21.25 184.417 21.25 175.625C21.25 163.042 24.4792 153.437 30.9375 146.812C37.3958 140.187 46.5208 136.875 58.3125 136.875L113.875 136.875L113.875 161.687L60.25 161.687C53.7917 161.687 49.1042 162.896 46.1875 165.312C43.2708 167.729 41.8125 171.292 41.8125 176C41.8125 179.375 42.4375 182.125 43.6875 184.25C44.9792 186.375 47 187.917 49.75 188.875C52.5 189.875 56.0417 190.375 60.375 190.375L113.875 190.375L113.875 215.062ZM22.5 266.25L113.875 266.25L113.875 291.062L22.5 291.062L22.5 266.25ZM22.5 408L22.5 336.812L37.75 336.812L93.9375 376.375L93.9375 337.75L113.875 337.75L113.875 407L98.6875 407L42.4375 367.437L42.4375 408L22.5 408Z" fill="#EBEBEB"/>
</svg>
